# xmcd
#
# Track frame offsets: 
#        183
#        36740
#        48443
#        75928
#        86328
#        121140
#        133310
#        147578
#        159170
#
# Disc length: 2492 seconds
#
# Revision: 13
# Processed by: cddbd v1.5.2PL0 Copyright (c) Steve Scherf et al.
# Submitted via: ExactAudioCopy v1.1
#
DISCID=7309ba09
DTITLE=Jimi Hendrix - Voodoo Guitar [CD2]
DYEAR=1997
DGENRE=Rock
TTITLE0=Red House
TTITLE1=Sweet Thing
TTITLE2=Blues Blues
TTITLE3=Groove Maker
TTITLE4=People's Peoples
TTITLE5=She's A Fox
TTITLE6=Woah Eeh
TTITLE7=Gonna Take A Lot
TTITLE8=Lime Lime
EXTD=
EXTT0=
EXTT1=
EXTT2=
EXTT3=
EXTT4=
EXTT5=
EXTT6=
EXTT7=
EXTT8=
PLAYORDER=
